<?xml version="1.0" encoding="UTF-8"?>
<!DOCTYPE svg PUBLIC "-//W3C//DTD SVG 1.1//EN" "http://www.w3.org/Graphics/SVG/1.1/DTD/svg11.dtd">
<!-- Creator: CorelDRAW 2017 -->
<svg xmlns="http://www.w3.org/2000/svg" xml:space="preserve" width="7.0264mm" height="5.3552mm" version="1.1" style="shape-rendering:geometricPrecision; text-rendering:geometricPrecision; image-rendering:optimizeQuality; fill-rule:evenodd; clip-rule:evenodd"
viewBox="0 0 447.28 340.89"
 xmlns:xlink="http://www.w3.org/1999/xlink">
 <defs>
  <style type="text/css">
   <![CDATA[
    .fil0 {fill:#FFFFFF;fill-rule:nonzero}
   ]]>
  </style>
 </defs>
 <g id="Camada_x0020_1">
  <metadata id="CorelCorpID_0Corel-Layer"/>
  <path class="fil0" d="M122.81 32.76l324.46 0 0 26.95 -324.46 0 0 -26.95zm0 248.43l324.46 0 0 26.95 -324.46 0 0 -26.95zm0 -124.21l324.46 0 0 26.95 -324.46 0 0 -26.95zm-76.58 -156.97c12.72,0 24.27,5.18 32.64,13.55l0.05 0.05c8.36,8.37 13.55,19.92 13.55,32.64 0,12.72 -5.18,24.27 -13.55,32.64l-0.05 0.05c-8.37,8.36 -19.92,13.55 -32.64,13.55 -12.76,0 -24.32,-5.18 -32.69,-13.55 -8.36,-8.42 -13.55,-19.97 -13.55,-32.69 0,-12.76 5.18,-24.32 13.55,-32.69 8.36,-8.36 19.93,-13.55 32.69,-13.55zm13.67 32.57c-3.48,-3.47 -8.31,-5.61 -13.67,-5.61 -5.33,0 -10.16,2.16 -13.64,5.64 -3.48,3.48 -5.64,8.31 -5.64,13.64 0,5.35 2.15,10.19 5.61,13.67 3.51,3.46 8.34,5.61 13.67,5.61 5.35,0 10.19,-2.15 13.67,-5.61 3.47,-3.48 5.61,-8.31 5.61,-13.67 0,-5.35 -2.15,-10.19 -5.61,-13.67zm-13.67 215.86c12.72,0 24.27,5.18 32.64,13.55l0.05 0.05c8.36,8.37 13.55,19.92 13.55,32.64 0,12.72 -5.18,24.27 -13.55,32.64l-0.05 0.05c-8.37,8.36 -19.92,13.55 -32.64,13.55 -12.76,0 -24.32,-5.18 -32.69,-13.55 -8.36,-8.42 -13.55,-19.97 -13.55,-32.69 0,-12.76 5.18,-24.32 13.55,-32.69 8.36,-8.36 19.93,-13.55 32.69,-13.55zm13.67 32.57c-3.48,-3.47 -8.31,-5.61 -13.67,-5.61 -5.33,0 -10.16,2.16 -13.64,5.64 -3.48,3.48 -5.64,8.31 -5.64,13.64 0,5.35 2.15,10.19 5.61,13.67 3.51,3.46 8.34,5.61 13.67,5.61 5.35,0 10.19,-2.15 13.67,-5.61 3.47,-3.48 5.61,-8.31 5.61,-13.67 0,-5.35 -2.15,-10.19 -5.61,-13.67zm-13.67 -156.78c12.72,0 24.27,5.18 32.64,13.55 8.42,8.36 13.6,19.93 13.6,32.69 0,12.72 -5.18,24.27 -13.55,32.64l-0.05 0.05c-8.37,8.36 -19.92,13.55 -32.64,13.55 -12.72,0 -24.27,-5.18 -32.64,-13.55l-0.05 -0.05c-8.36,-8.37 -13.55,-19.92 -13.55,-32.64 0,-12.76 5.18,-24.32 13.55,-32.69 8.36,-8.36 19.93,-13.55 32.69,-13.55zm13.65 32.58c-3.47,-3.48 -8.3,-5.63 -13.65,-5.63 -5.33,0 -10.16,2.16 -13.64,5.64 -3.48,3.48 -5.64,8.31 -5.64,13.64 0,5.35 2.15,10.19 5.61,13.67 3.48,3.47 8.31,5.61 13.67,5.61 5.35,0 10.19,-2.15 13.67,-5.61 3.47,-3.48 5.61,-8.31 5.61,-13.67 0,-5.33 -2.16,-10.16 -5.63,-13.65z"/>
 </g>
</svg>
