<?xml version="1.0" encoding="UTF-8"?>
<!DOCTYPE svg PUBLIC "-//W3C//DTD SVG 1.1//EN" "http://www.w3.org/Graphics/SVG/1.1/DTD/svg11.dtd">
<!-- Creator: CorelDRAW 2017 -->
<svg xmlns="http://www.w3.org/2000/svg" xml:space="preserve" width="4.9448mm" height="6.9859mm" version="1.1" style="shape-rendering:geometricPrecision; text-rendering:geometricPrecision; image-rendering:optimizeQuality; fill-rule:evenodd; clip-rule:evenodd"
viewBox="0 0 291.35 411.61"
 xmlns:xlink="http://www.w3.org/1999/xlink">
 <defs>
  <style type="text/css">
   <![CDATA[
    .fil0 {fill:#FFFFFF;fill-rule:nonzero}
   ]]>
  </style>
 </defs>
 <g id="Camada_x0020_1">
  <metadata id="CorelCorpID_0Corel-Layer"/>
  <path class="fil0" d="M24.28 398.66c-2.1,6.53 -9.1,10.13 -15.64,8.04 -6.53,-2.1 -10.13,-9.1 -8.04,-15.64 2.94,-9.11 8.74,-16.96 16.32,-22.48 7.4,-5.43 16.51,-8.61 26.34,-8.61 4.33,0 8.6,0.65 12.67,1.86l0.47 0.14c3.83,-4.58 8.39,-8.53 13.5,-11.65 8.3,-5.06 18.01,-7.98 28.35,-7.98 4.98,0 9.89,0.71 14.63,2.03l3.05 0.95c5.07,-5.96 11.17,-11.03 18.02,-14.93 9.83,-5.6 21.17,-8.81 33.19,-8.81 16.37,0 31.4,5.89 43.09,15.66 7.01,5.87 12.82,13.16 16.97,21.42l0.58 -0.25c5.73,-2.64 12.08,-4.12 18.72,-4.12 12.32,0 23.52,5.02 31.66,13.15l0.12 0.12c8.08,8.13 13.07,19.3 13.07,31.59 0,6.89 -5.59,12.47 -12.47,12.47 -6.89,0 -12.47,-5.59 -12.47,-12.47 0,-5.53 -2.21,-10.51 -5.78,-14.08l-0.05 -0.05c-3.56,-3.57 -8.55,-5.78 -14.08,-5.78 -2.95,0 -5.74,0.62 -8.21,1.73l-0.47 0.24c-2.69,1.31 -5.05,3.19 -6.88,5.48 -1.83,2.41 -4.55,4.17 -7.77,4.73 -6.78,1.18 -13.23,-3.35 -14.42,-10.13 -1.77,-9.95 -7.05,-18.72 -14.51,-24.96 -7.31,-6.12 -16.77,-9.8 -27.11,-9.8 -7.65,0 -14.79,2 -20.91,5.49 -6.36,3.62 -11.71,8.89 -15.46,15.21l-0.1 0.09c-3.55,5.86 -11.18,7.74 -17.05,4.19 -2.23,-1.36 -4.71,-2.43 -7.36,-3.17 -2.45,-0.68 -5.14,-1.05 -8.01,-1.05 -5.68,0 -10.96,1.57 -15.39,4.27 -4.64,2.83 -8.47,6.92 -10.97,11.78l-0.64 1.07c-3.74,5.75 -11.44,7.39 -17.19,3.65 -1.54,-1 -3.29,-1.81 -5.15,-2.36 -1.72,-0.51 -3.62,-0.78 -5.66,-0.78 -4.4,0 -8.46,1.41 -11.73,3.78 -3.38,2.42 -5.95,5.92 -7.26,9.96z"/>
  <path class="fil0" d="M121.29 200.97l0.65 1.91c3.83,10.48 9.36,19.18 16.04,25.92 6.81,6.85 14.86,11.71 23.58,14.36l0.71 0.18c8.15,2.35 16.96,2.81 25.91,1.23 8.7,-1.54 17.61,-5.01 26.31,-10.55l0.38 -0.26c74.66,-48.18 43.81,-131.17 20.08,-194.98l-2.81 -7.58 -6.9 4.28c-57.66,35.73 -132.55,82.17 -103.96,165.49zm-23.4 8.4c-35.44,-102.21 49.18,-154.68 114.3,-195.03 6.28,-3.89 12.36,-7.66 19.66,-12.37 5.78,-3.71 13.49,-2.03 17.2,3.75 0.67,1.04 1.15,2.14 1.48,3.28 2.43,6.92 5.04,13.89 7.71,21.1 26.67,71.72 61.31,164.89 -28.97,223.97l-1.6 1.07c-11.49,7.3 -23.41,11.9 -35.2,13.98 -12.73,2.24 -25.3,1.56 -37.03,-1.81l-1 -0.33c-12.68,-3.83 -24.34,-10.82 -34.1,-20.65 -9.44,-9.52 -17.13,-21.72 -22.25,-36.29l-0.21 -0.67z"/>
  <path class="fil0" d="M191.9 99.59c2.6,-6.35 9.87,-9.37 16.22,-6.77 6.35,2.6 9.37,9.87 6.77,16.22 -13.49,32.71 -28.06,76.64 -36.64,121.2 -6.54,34.03 -9.57,68.25 -5.85,97.67 0.86,6.81 -3.96,13.03 -10.76,13.89 -6.81,0.86 -13.03,-3.96 -13.89,-10.76 -4.09,-32.38 -0.92,-69.22 6.05,-105.47 8.9,-46.26 24.06,-91.93 38.1,-125.97z"/>
 </g>
</svg>
