<?xml version="1.0" encoding="UTF-8"?>
<!DOCTYPE svg PUBLIC "-//W3C//DTD SVG 1.1//EN" "http://www.w3.org/Graphics/SVG/1.1/DTD/svg11.dtd">
<!-- Creator: CorelDRAW 2017 -->
<svg xmlns="http://www.w3.org/2000/svg" xml:space="preserve" width="6.9866mm" height="8.5422mm" version="1.1" style="shape-rendering:geometricPrecision; text-rendering:geometricPrecision; image-rendering:optimizeQuality; fill-rule:evenodd; clip-rule:evenodd"
viewBox="0 0 477 583.21"
 xmlns:xlink="http://www.w3.org/1999/xlink">
 <defs>
  <style type="text/css">
   <![CDATA[
    .fil0 {fill:#FFFFFF;fill-rule:nonzero}
   ]]>
  </style>
 </defs>
 <g id="Camada_x0020_1">
  <metadata id="CorelCorpID_0Corel-Layer"/>
  <path class="fil0" d="M213.14 288.42l0.4 1.84c2.78,13.42 2.57,26.25 -0.16,37.93 -2.49,10.58 -7.05,20.2 -13.35,28.44 11.8,19.72 23.25,42.36 33.51,68.19 1.34,-54.86 7.09,-104.98 14.87,-149.21 -10.02,-4.27 -19.26,-10.51 -27.29,-18.6 -9.91,-9.99 -17.98,-22.78 -23.34,-38.06l-0.25 -0.76c-36.92,-106.65 51.01,-161.18 118.7,-203.13 6.4,-3.97 12.61,-7.82 20.28,-12.77 6.7,-4.3 15.63,-2.35 19.93,4.35 0.76,1.19 1.33,2.46 1.71,3.75 2.51,7.15 5.19,14.34 7.95,21.76 27.7,74.53 63.66,171.34 -30.43,233l-1.88 1.25c-12.02,7.61 -24.48,12.41 -36.82,14.58 -6.89,1.22 -13.74,1.61 -20.44,1.23 -9.73,55.79 -16.06,121.2 -14.04,193.86 7.56,-16.39 16.56,-31.75 26.16,-45.85 -4.27,-5.64 -7.53,-12.09 -9.61,-19.16 -2.71,-9.2 -3.39,-19.47 -1.67,-30.33l0.1 -0.58c12.17,-74.26 79.53,-78.27 131.35,-81.34l14.95 -0.99c7.95,-0.59 14.88,5.37 15.46,13.32 0.11,1.47 0,2.91 -0.31,4.28l-2.01 13.84c-7.2,51.27 -16.58,117.81 -90.93,124.35l-2.06 0.19c-9.49,0.64 -18.47,-0.54 -26.61,-3.24 -2.07,-0.69 -4.08,-1.47 -6.03,-2.35 -22.68,33.8 -41.37,74.94 -41.95,119.6 0.51,7.62 -5.05,14.4 -12.71,15.3 -7.91,0.93 -15.1,-4.73 -16.03,-12.64l-0.32 -2.68c-10.92,-83.27 -35.54,-145.89 -62.3,-191.9 -3.24,1.86 -6.64,3.5 -10.21,4.9 -9.93,3.92 -21.14,6 -33.29,5.9l-1.39 -0.02c-98.29,-2.23 -115.51,-89.66 -128.74,-156.89 -1.34,-6.81 -2.64,-13.41 -4.03,-19.83 -0.19,-1.08 -0.3,-2.18 -0.28,-3.32 0.15,-7.95 6.72,-14.26 14.67,-14.11 6.6,0.15 13.37,0.19 20.35,0.22 68.28,0.31 156.98,0.74 178.11,95.69zm121.49 184.4c7.24,0 13.09,5.86 13.09,13.09 0,7.23 -5.86,13.09 -13.09,13.09 -7.23,0 -13.09,-5.86 -13.09,-13.09 0,-7.24 5.86,-13.09 13.09,-13.09zm112.12 -402.71c7.24,0 13.09,5.86 13.09,13.09 0,7.23 -5.86,13.09 -13.09,13.09 -7.23,0 -13.09,-5.86 -13.09,-13.09 0,-7.24 5.86,-13.09 13.09,-13.09zm4.06 143.16c14.47,0 26.19,11.72 26.19,26.19 0,14.47 -11.72,26.19 -26.19,26.19 -14.47,0 -26.19,-11.72 -26.19,-26.19 0,-14.47 11.72,-26.19 26.19,-26.19zm-311.62 -129.17c14.47,0 26.19,11.72 26.19,26.19 0,14.47 -11.72,26.19 -26.19,26.19 -14.47,0 -26.19,-11.72 -26.19,-26.19 0,-14.47 11.72,-26.19 26.19,-26.19zm-103.87 44.71c7.24,0 13.09,5.86 13.09,13.09 0,7.23 -5.86,13.09 -13.09,13.09 -7.23,0 -13.09,-5.86 -13.09,-13.09 0,-7.24 5.86,-13.09 13.09,-13.09zm95.74 297.61c14.47,0 26.19,11.72 26.19,26.19 0,14.47 -11.72,26.19 -26.19,26.19 -14.47,0 -26.19,-11.72 -26.19,-26.19 0,-14.47 11.72,-26.19 26.19,-26.19zm-48.86 -159.2c-6.39,-4.77 -7.7,-13.82 -2.94,-20.21 4.77,-6.39 13.82,-7.7 20.21,-2.94l2.39 1.82c12.43,9.26 46.23,34.94 80.69,83.86 1.13,-2.57 2.03,-5.29 2.69,-8.12 1.85,-7.87 1.91,-16.71 -0.12,-26.14l-0.01 -0.07c-15.88,-73.3 -91.8,-73.66 -150.2,-73.92l-2.82 -0.01 0.55 2.74c11.28,57.29 25.95,131.74 100.68,133.63l1.48 0.03c8.23,0.05 15.79,-1.37 22.43,-3.98 1.85,-0.73 3.63,-1.56 5.33,-2.47 -33.09,-48.57 -66.06,-73.62 -77.93,-82.46l-2.42 -1.76zm218.78 -176.88c3.02,-7.35 11.44,-10.86 18.8,-7.84 7.35,3.02 10.86,11.44 7.84,18.8 -11.49,27.86 -30.91,80.59 -45.65,152.17 3.29,-0.03 6.64,-0.33 10,-0.93 8.78,-1.54 17.78,-5.06 26.58,-10.66l0.42 -0.28c76,-49.05 44.42,-134.03 20.13,-199.4l-2.25 -6.05 -5.5 3.41c-59.04,36.59 -135.71,84.13 -106.71,168.89l0.75 2.21c3.87,10.53 9.43,19.28 16.15,26.05 3.81,3.83 8,7.05 12.48,9.6 15.17,-73.12 35.13,-127.24 46.97,-155.95zm60.95 257.04c5.89,-5.36 15.02,-4.93 20.38,0.96 5.36,5.89 4.93,15.02 -0.96,20.38 -12.71,11.59 -32.72,30.68 -52.33,55.27 3.9,0.95 8.25,1.3 12.96,1l0.53 -0.05c51.37,-3.99 59.68,-56.01 65.48,-97.21 -41.55,2.49 -94.09,6.6 -102.19,57.49 -1.03,6.47 -0.66,12.45 0.88,17.7 0.2,0.68 0.42,1.36 0.67,2.02 20.61,-25.69 41.35,-45.5 54.59,-57.56z"/>
 </g>
</svg>
