<?xml version="1.0" standalone="no"?>
<!DOCTYPE svg PUBLIC "-//W3C//DTD SVG 20010904//EN"
 "http://www.w3.org/TR/2001/REC-SVG-20010904/DTD/svg10.dtd">
<svg version="1.0" xmlns="http://www.w3.org/2000/svg"
 width="260.000000pt" height="260.000000pt" viewBox="0 0 260.000000 260.000000"
 preserveAspectRatio="xMidYMid meet">
<metadata>
Created by potrace 1.11, written by Peter Selinger 2001-2013
</metadata>
<g transform="translate(0.000000,260.000000) scale(0.100000,-0.100000)"
fill="#000000" stroke="none">
<path d="M47 1563 c-2 -5 -7 -20 -10 -34 l-7 -26 118 0 c65 0 123 -2 129 -6 8
-5 4 -34 -14 -100 -13 -50 -26 -100 -28 -109 -4 -17 -51 -195 -61 -230 -5 -16
4 -18 94 -18 86 0 100 2 104 18 3 9 29 107 58 217 29 110 58 207 66 214 10 12
43 15 139 15 110 1 125 3 125 17 0 10 3 24 6 33 6 14 -30 16 -354 16 -199 0
-363 -3 -365 -7z"/>
<path d="M837 1563 c-3 -5 -22 -69 -41 -143 -20 -74 -49 -186 -66 -248 -16
-62 -30 -117 -30 -122 0 -12 57 -13 64 -2 3 5 7 19 10 33 5 29 77 293 80 296
1 2 55 -69 120 -157 65 -88 120 -160 122 -160 3 0 96 72 207 160 111 87 202
158 203 157 1 -1 -18 -76 -42 -167 -24 -91 -44 -166 -44 -167 0 -2 44 -3 98
-3 l99 0 70 263 70 262 -53 3 -53 3 -197 -157 c-108 -86 -203 -157 -211 -158
-7 0 -64 69 -126 154 l-113 155 -81 3 c-45 1 -84 -1 -86 -5z"/>
<path d="M1989 1553 c-26 -8 -68 -32 -95 -52 -178 -134 -201 -359 -44 -438 43
-22 53 -23 337 -23 251 0 293 2 293 15 0 11 52 216 76 298 5 16 -7 17 -159 17
l-165 0 -11 -30 c-5 -16 -7 -31 -3 -31 4 -1 28 -2 54 -3 27 -1 52 -6 57 -11
12 -13 -22 -153 -42 -172 -11 -11 -47 -14 -158 -14 l-144 0 -27 31 c-35 38
-35 69 -4 177 30 101 38 116 79 146 48 37 67 40 253 39 l172 0 11 25 c6 13 11
28 11 33 0 6 -88 10 -222 9 -173 0 -233 -4 -269 -16z"/>
</g>
</svg>
